<?xml version="1.0" encoding="utf-8"?>
<!-- Generator: Adobe Illustrator 21.1.0, SVG Export Plug-In . SVG Version: 6.00 Build 0)  -->
<svg version="1.1" id="Layer_1" xmlns="http://www.w3.org/2000/svg" xmlns:xlink="http://www.w3.org/1999/xlink" x="0px" y="0px"
	 viewBox="0 0 957 227" style="enable-background:new 0 0 957 227;" xml:space="preserve">
<style type="text/css">
	.st0{opacity:0.34;}
	.st1{fill:#FFFFFF;}
</style>
<g class="st0">
	<path class="st1" d="M413.1,9c-24-0.1-49.1,3.7-75.1,10.7c-1.4,0.4-2.6,1.2-3.5,2.4s-1.3,2.5-1.3,3.9v182.6c0,1.1,0.2,2.2,0.7,3.1
		c0.5,0.9,1.2,1.8,2.1,2.4c0.9,0.6,1.9,1,3,1.1c1.1,0.1,2.2,0,3.2-0.4c44.8-17.2,88.1-19.7,131.1-0.4c0.8,0.3,1.7,0.6,2.5,0.6
		c0.8,0,1.6-0.1,2.4-0.4c46.4-16,89.9-16.8,130.8,0.1c1,0.4,2.1,0.6,3.2,0.5c1.1-0.1,2.1-0.5,3-1.1c0.9-0.6,1.7-1.4,2.2-2.4
		c0.5-1,0.8-2,0.8-3.1V26c0-1.4-0.5-2.8-1.3-3.9s-2.1-2-3.5-2.4c-46.9-12.9-92.7-11-137.4-0.5C456,12.3,435,9.1,413.1,9L413.1,9z
		 M413,22.3c19.6,0,38.4,2.7,56,8.5v167.6c-40.4-15.2-81.7-13.1-122.6,0.8v-168C369.6,25.3,391.8,22.2,413,22.3L413,22.3z"/>
</g>
<g>
	<path class="st1" d="M24.1,113.6v31.9H7.9V65.4h29.5c9.3,0,16.4,2.3,21.4,7c5,4.6,7.5,10.4,7.5,17.2c0,5.1-1.5,9.8-4.6,14.1
		c-3.1,4.4-7.9,7.4-14.5,9l20.5,33H48.5l-19.2-31.9H24.1z M24.1,77.8v23.4h13.3c4.1,0,7.2-1.1,9.3-3.2c2.1-2.1,3.2-5,3.2-8.6
		c0-3.6-1.1-6.5-3.2-8.6c-2.1-2.1-5.2-3.2-9.3-3.2H24.1z"/>
	<path class="st1" d="M86.5,137.2c-5.7-6.2-8.6-14-8.6-23.6c0-9.6,2.8-17.4,8.5-23.5C92.1,84,99.3,81,108,81c8.7,0,15.4,3.6,20,10.8
		v-9.9h16.1v63.6H128v-10.7c-4.8,7.7-11.5,11.6-20.1,11.6C99.3,146.5,92.2,143.4,86.5,137.2z M123,127.5c3.4-3.3,5.1-7.9,5.1-13.7
		c0-5.8-1.7-10.4-5.1-13.7c-3.4-3.3-7.3-5-11.8-5c-4.5,0-8.4,1.6-11.8,4.9c-3.3,3.3-5,7.9-5,13.7c0,5.8,1.7,10.4,5.1,13.8
		c3.4,3.4,7.3,5.1,11.8,5.1C115.7,132.5,119.6,130.8,123,127.5z"/>
	<path class="st1" d="M186,132h7.7v13.6h-10.2c-6.5,0-11.5-1.5-15-4.5c-3.5-3-5.3-7.9-5.3-14.8V95.1h-6.8V81.9h6.8V66.2h16.2v15.7
		h14.2v13.2h-14.2v31.1c0,2.1,0.5,3.5,1.5,4.4C181.9,131.6,183.6,132,186,132z"/>
	<path class="st1" d="M233.3,146.5c-9.3,0-16.8-3-22.6-9c-5.8-6-8.7-14-8.7-23.8c0-9.9,2.9-17.8,8.8-23.7c5.9-5.9,13.4-8.9,22.7-8.9
		c9.3,0,16.9,2.9,22.9,8.7c6,5.8,9,13.5,9,23.2c0,2.2-0.2,4.3-0.5,6.2h-46.4c0.4,4.1,1.9,7.5,4.6,10c2.7,2.5,6.1,3.8,10.2,3.8
		c5.6,0,9.7-2.3,12.4-6.9h17.5c-1.8,6.1-5.4,11-10.7,14.8C247.2,144.6,240.8,146.5,233.3,146.5z M243.9,98.5
		c-2.9-2.5-6.3-3.8-10.4-3.8c-4.1,0-7.4,1.3-10.2,3.8c-2.7,2.5-4.3,5.9-4.9,10.1h30.1C248.3,104.4,246.8,101,243.9,98.5z"/>
	<path class="st1" d="M400,65.4v80.2h-16.1V94.9L362,145.6h-11.6l-21.7-50.4v50.4h-16.2V65.4h18l25.7,59.4L382,65.4H400z"/>
	<path class="st1" d="M434.3,144.4l-24.9-62.5h18.2l16.2,45.3l17.1-45.3h16.9L438,175.7h-16.9L434.3,144.4z"/>
	<path class="st1" d="M609.1,65.4v80.2H593V94.9l-21.8,50.7h-11.6l-21.7-50.4v50.4h-16.2V65.4h18l25.7,59.4l25.7-59.4H609.1z"/>
	<path class="st1" d="M631.2,137.4c-6.2-6-9.3-14-9.3-23.8c0-9.8,3.1-17.7,9.4-23.7c6.3-6,14.1-9,23.4-9s17.1,3,23.4,9
		c6.3,6,9.4,13.9,9.4,23.7c0,9.8-3.2,17.7-9.5,23.8c-6.3,6.1-14.2,9.1-23.5,9.1C645.2,146.5,637.4,143.5,631.2,137.4z M654.5,132.8
		c4.5,0,8.4-1.7,11.7-5c3.3-3.3,4.9-8,4.9-14.1c0-6.1-1.6-10.8-4.8-14.1c-3.2-3.3-7.1-4.9-11.7-4.9c-4.6,0-8.4,1.6-11.5,4.9
		c-3.1,3.3-4.7,8-4.7,14.1c0,6.1,1.6,10.8,4.7,14.1C646.2,131.2,650,132.8,654.5,132.8z"/>
	<path class="st1" d="M704.5,137.2c-5.7-6.2-8.6-14-8.6-23.6c0-9.6,2.8-17.4,8.5-23.5C710.1,84,717.3,81,726,81
		c8.7,0,15.4,3.6,20,10.8V60.5h16.1v85H746v-10.7c-4.8,7.7-11.5,11.6-20.1,11.6C717.3,146.5,710.2,143.4,704.5,137.2z M740.9,127.5
		c3.4-3.3,5.1-7.9,5.1-13.7c0-5.8-1.7-10.4-5.1-13.7c-3.4-3.3-7.3-5-11.8-5c-4.5,0-8.4,1.6-11.8,4.9c-3.3,3.3-5,7.9-5,13.7
		c0,5.8,1.7,10.4,5.1,13.8c3.4,3.4,7.3,5.1,11.8,5.1C733.6,132.5,737.6,130.8,740.9,127.5z"/>
	<path class="st1" d="M823.2,81.9h16.2v63.6h-16.2v-9.7c-4.1,7-10.7,10.5-19.9,10.5c-7.2,0-13.1-2.4-17.7-7.2
		c-4.6-4.8-6.9-11.4-6.9-19.9V81.9h16.1v35c0,5,1.3,8.8,3.8,11.5c2.5,2.7,6,4,10.3,4c4.4,0,7.8-1.3,10.4-4c2.6-2.7,3.8-6.5,3.8-11.5
		V81.9z"/>
	<path class="st1" d="M856.6,145.6v-85h16.2v85H856.6z"/>
	<path class="st1" d="M916.9,146.5c-9.3,0-16.8-3-22.6-9c-5.8-6-8.7-14-8.7-23.8c0-9.9,2.9-17.8,8.8-23.7c5.9-5.9,13.4-8.9,22.7-8.9
		c9.3,0,16.9,2.9,22.9,8.7c6,5.8,9,13.5,9,23.2c0,2.2-0.2,4.3-0.5,6.2h-46.4c0.4,4.1,1.9,7.5,4.6,10c2.7,2.5,6.1,3.8,10.2,3.8
		c5.6,0,9.7-2.3,12.4-6.9h17.5c-1.8,6.1-5.4,11-10.7,14.8C930.8,144.6,924.5,146.5,916.9,146.5z M927.6,98.5
		c-2.9-2.5-6.3-3.8-10.4-3.8c-4.1,0-7.4,1.3-10.2,3.8c-2.7,2.5-4.3,5.9-4.9,10.1h30.1C932,104.4,930.4,101,927.6,98.5z"/>
</g>
</svg>
